<svg xmlns="http://www.w3.org/2000/svg" viewBox="0 0 400 300" width="406" height="306" class="illustration styles_illustrationTablet__1DWOa"><g id="_357_laboratory_analyst_flatline" data-name="#357_laboratory_analyst_flatline"><path d="M133.27,162.6c-1,.59-38,57.64-24.82,68.39,18,14.66,33.53,4.6,50.59-21.66l-9.18-31.83Z" fill="#fff"></path><path d="M124.73,238.27c-5.48,0-11-2.27-16.61-6.88-2.3-1.87-3.3-5.15-3-9.75,1.38-19.15,26.48-58.66,27.85-59.48a.51.51,0,0,1,.61.05l16.59,14.9a.51.51,0,0,1,.15.24l9.19,31.84a.52.52,0,0,1-.06.42c-11.59,17.82-21.63,26.85-31.61,28.41A19.55,19.55,0,0,1,124.73,238.27Zm8.59-74.93c-3.11,4.2-28,43.16-27.18,60.82.14,3,1,5.12,2.63,6.43,6.5,5.29,12.7,7.39,18.94,6.41,9.63-1.51,19.42-10.33,30.77-27.75l-9.08-31.47Z" fill="#231f20"></path><path d="M118.13,213a.51.51,0,0,1-.36-.15.52.52,0,0,1,0-.73c5.2-5.31,23.08-20.68,23.26-20.84a.52.52,0,1,1,.67.79c-.18.15-18,15.49-23.2,20.77A.49.49,0,0,1,118.13,213Z" fill="#231f20"></path><path d="M192.64,109.56s-27,6-40.81,17-28.44,48-28.44,48l30.86,18.21,0,24.69-5.23,6.5,2.49,47.18H253.8l2.48-72.9,26.49-13.45s-18.38-40.7-29.53-53.5S221,108.58,192.64,109.56Z" fill="#00BFA6"></path><path d="M202.4,197a.5.5,0,0,1-.38-.19l-33-40.7a.49.49,0,0,1,0-.64l14-16.07-17.22-5a.51.51,0,0,1-.23-.82l15-16.52a.5.5,0,0,1,.73.67L166.82,133.6l17.21,5a.49.49,0,0,1,.33.34.5.5,0,0,1-.1.47L170,155.76l32.76,40.39a.5.5,0,0,1-.07.7A.54.54,0,0,1,202.4,197Z" fill="#231f20"></path><path d="M209.15,193.2a.45.45,0,0,1-.34-.14.49.49,0,0,1,0-.7l31.08-32.89L226.32,144a.49.49,0,0,1-.12-.37.52.52,0,0,1,.18-.35l16.92-13.4-18.07-12.16a.5.5,0,1,1,.55-.83l18.64,12.55a.44.44,0,0,1,.22.39.49.49,0,0,1-.18.41l-17.05,13.5,13.51,15.39a.5.5,0,0,1,0,.67L209.51,193A.48.48,0,0,1,209.15,193.2Z" fill="#231f20"></path><path d="M187.87,122.5l17.54,74,15.53-72.81S199.4,124.93,187.87,122.5Z" fill="#231f20"></path><path d="M205.41,197a.49.49,0,0,1-.48-.38l-17.55-74a.49.49,0,0,1,.13-.46A.52.52,0,0,1,188,122c11.34,2.39,32.73,1.15,32.94,1.14a.55.55,0,0,1,.41.17.52.52,0,0,1,.11.43L205.9,196.56a.5.5,0,0,1-.48.4Zm-16.88-73.82,16.86,71.05,14.93-70C216.71,124.36,199,125.13,188.53,123.14Z" fill="#231f20"></path><path d="M234.13,75.33c5-10.93,7.26-27.48-2.29-36.26l8.71-3.23-18.26-7.37c-5.65-2.28-11.44-4.6-17.53-4.86-12-.52-23.74,8-27,19.55-6.7,5.22-6.83,13.11-4.38,20.35.39,1.14,9.48,17.46,6.59,17.28,8.42.52,16.91,1.24,25.4,1.11C212.14,81.8,230.53,83.28,234.13,75.33Z" fill="#fff"></path><path d="M212.3,82.46c-1.28,0-2.51,0-3.63,0s-2.37,0-3.27,0c-6.89.1-13.86-.36-20.6-.8L180,81.31h0a.51.51,0,0,1-.48-.55.49.49,0,0,1,.54-.48h0c.49-.76-1.48-5.52-5.88-14.11-.76-1.5-1.14-2.23-1.23-2.5-3-8.79-1.41-16.18,4.41-20.81,3.36-11.62,15.37-20.28,27.46-19.77,6.25.27,12.07,2.62,17.7,4.9l18.26,7.37a.52.52,0,0,1,0,1l-7.94,2.94c6.32,6.43,9.25,19.9,1.82,36.27h0C231.77,81.78,220.72,82.46,212.3,82.46Zm-6.1-1.08,2.48,0c7.69.1,22,.29,25-6.28h0c7.45-16.42,4.27-29.74-2.17-35.67a.49.49,0,0,1-.16-.48.49.49,0,0,1,.33-.38l7.46-2.77L222.1,29c-5.55-2.25-11.29-4.56-17.36-4.83C193.09,23.6,181.43,32,178.27,43.3a.48.48,0,0,1-.18.26c-7.13,5.57-6.22,13.83-4.2,19.78.07.21.58,1.2,1.17,2.36,3.94,7.69,6.23,12.69,6,14.64l3.83.25c6.72.44,13.67.9,20.51.79Zm27.93-6h0Z" fill="#231f20"></path><path d="M226.11,77.88c1.79-9.13,17.11-10.86,16-.06a16,16,0,0,1-4.41,10c-2.71,2.56-7,3.68-10.31,2" fill="#fff"></path><path d="M230.83,91.16a8.33,8.33,0,0,1-3.69-.82.52.52,0,0,1,.46-.93c3,1.46,7,.66,9.72-2,3-2.82,4-6.83,4.26-9.7.39-3.76-1.36-6.3-4.69-6.8-4.1-.61-9.31,2.12-10.27,7a.52.52,0,0,1-.61.41.53.53,0,0,1-.41-.61c1.08-5.47,6.9-8.52,11.44-7.84,3.05.46,6.11,2.78,5.57,7.93-.32,3-1.37,7.3-4.58,10.34A10.61,10.61,0,0,1,230.83,91.16Z" fill="#231f20"></path><path d="M188.13,76.56c-1.16-9.23-16.32-12-15.95-1.17a16,16,0,0,0,3.72,10.3c2.51,2.75,6.68,4.16,10.14,2.75" fill="#fff"></path><path d="M183.13,89.51A10.5,10.5,0,0,1,175.52,86c-3-3.26-3.74-7.58-3.85-10.63-.18-5.18,3-7.28,6.1-7.53,4.59-.35,10.18,3.08,10.87,8.62a.52.52,0,0,1-1,.13c-.61-5-5.63-8.06-9.76-7.72-3.36.27-5.28,2.68-5.15,6.46.1,2.88.8,6.95,3.58,10,2.56,2.8,6.49,3.87,9.56,2.62a.52.52,0,1,1,.39,1A8.18,8.18,0,0,1,183.13,89.51Z" fill="#231f20"></path><path d="M187.87,122.5s7,3.58,19,4,14-2.85,14-2.85l-.29-6.44-.66-15-.63-14-27.47-1-1.31,11.38-.41,3.69Z" fill="#fff"></path><path d="M208.94,127.05c-.65,0-1.33,0-2.05,0-12-.42-19-3.9-19.26-4.05a.53.53,0,0,1-.28-.52l4-35.2a.51.51,0,0,1,.53-.45l27.47.95a.5.5,0,0,1,.49.49l1.59,35.39a.61.61,0,0,1-.08.3C221.29,124.05,219.32,127.05,208.94,127.05Zm-20.52-4.86c1.5.68,8.15,3.43,18.51,3.79,10.16.35,13-2,13.49-2.51l-1.56-34.72-26.51-.92Z" fill="#231f20"></path><path d="M190.17,102.37c2,3.41,5.3,6.14,8.75,8.22,5.8,3.48,14.52,7.46,21.73,6.62l-.66-15a67.2,67.2,0,0,1-15.84-.44c-4.62-.57-9.38-1.19-13.57-3.12Z" fill="#231f20"></path><path d="M218.6,117.82c-7.41,0-15.53-4.16-19.93-6.8-4.17-2.51-7.17-5.34-8.93-8.4a.56.56,0,0,1-.06-.31l.4-3.69a.51.51,0,0,1,.25-.38.53.53,0,0,1,.46,0c4.24,2,9.12,2.56,13.42,3.08a66.3,66.3,0,0,0,15.73.45.48.48,0,0,1,.37.11.5.5,0,0,1,.18.36l.66,15a.49.49,0,0,1-.44.51A18.39,18.39,0,0,1,218.6,117.82Zm-27.91-15.56a23.81,23.81,0,0,0,8.49,7.9c4.62,2.78,13.41,7.26,20.95,6.6l-.61-14a67.93,67.93,0,0,1-15.44-.5c-4.16-.51-8.86-1.08-13.08-2.88Z" fill="#231f20"></path><path d="M204.22,105.22l2.45.08A21.06,21.06,0,0,0,228.45,85l1.16-33.32s-4.16,4.74-20.8,4.4-23.75-6-23.75-6L183.9,83.44A21.07,21.07,0,0,0,204.22,105.22Z" fill="#fff"></path><path d="M207.41,105.83h-.76l-2.45-.09a21.57,21.57,0,0,1-20.82-22.31l1.16-33.33a.52.52,0,0,1,.3-.45.51.51,0,0,1,.54.07c.07,0,7.2,5.49,23.44,5.83s20.36-4.18,20.4-4.23a.53.53,0,0,1,.58-.13.51.51,0,0,1,.32.49L229,85A21.61,21.61,0,0,1,207.41,105.83ZM185.54,51.07l-1.12,32.38a20.56,20.56,0,0,0,19.82,21.25h0l2.45.09A20.53,20.53,0,0,0,227.93,85l1.12-32.18c-2,1.38-7.54,4.06-20.25,3.79C195.09,56.29,187.83,52.51,185.54,51.07Z" fill="#231f20"></path><path d="M206.66,86.86a35,35,0,0,1-4.33-.28.52.52,0,0,1-.44-.59.53.53,0,0,1,.59-.44,31.22,31.22,0,0,0,6,.21.28.28,0,0,0,.26-.16c.92-1.48-1.4-8.5-3.07-12.58a.51.51,0,0,1,.28-.67.52.52,0,0,1,.67.28c.76,1.84,4.46,11.16,3,13.51a1.29,1.29,0,0,1-1.06.65C207.91,86.84,207.27,86.86,206.66,86.86Z" fill="#231f20"></path><path d="M188.79,84.6l-.66,11.84s4.64,9.06,19.12,8.83c10.76-.16,15.54-6.67,16.47-8.83s.71-12,.71-12Z" fill="#fff"></path><path d="M206.71,105.79c-14.2,0-18.85-8.73-19-9.11a.49.49,0,0,1-.06-.27l.66-11.84a.52.52,0,0,1,.52-.48l35.64-.16h0a.51.51,0,0,1,.51.51c0,.4.22,10-.74,12.21-1.08,2.48-6.21,9-16.94,9.14Zm-18.06-9.47c.6,1,5.39,8.44,18.08,8.44h.51c10.19-.16,15-6.21,16-8.52.69-1.59.72-8.25.67-11.27l-34.64.15Z" fill="#231f20"></path><path d="M204.69,100.62c-7.53,0-11.08-2.73-11.3-2.91a.5.5,0,0,1-.08-.7.52.52,0,0,1,.71-.08c.07.06,7.87,6,25-.08a.5.5,0,0,1,.34.94A44.16,44.16,0,0,1,204.69,100.62Z" fill="#d1d3d4"></path><path d="M206.58,91.68a78.36,78.36,0,0,1-14-1.36.5.5,0,0,1,.2-1c.17,0,16.71,3.31,26.28-.59a.5.5,0,0,1,.38.93C215.65,91.2,211,91.68,206.58,91.68Z" fill="#d1d3d4"></path><path d="M188.79,85.12a.51.51,0,0,1-.49-.37l-4.91-16.23a.52.52,0,0,1,.35-.64.51.51,0,0,1,.64.34l4.9,16.23a.52.52,0,0,1-.34.65Z" fill="#231f20"></path><path d="M224.43,85a.44.44,0,0,1-.16,0,.52.52,0,0,1-.33-.65l4.53-14.09a.52.52,0,0,1,1,.32l-4.53,14.09A.5.5,0,0,1,224.43,85Z" fill="#231f20"></path><path d="M231.75,65.3s-22-7.38-49.88-2.13L182.44,75a30.49,30.49,0,0,0,12.88,2.72c6.73-.26,11.43-6.17,11.43-6.17a11.12,11.12,0,0,0,10.06,7.14c7.72.24,13.46-4.91,13.46-4.91Z" fill="#fff"></path><path d="M217.35,79.21h-.56a11.59,11.59,0,0,1-10.19-6.71c-1.45,1.58-5.64,5.52-11.26,5.74a30.74,30.74,0,0,1-13.13-2.78.51.51,0,0,1-.29-.44l-.57-11.81a.51.51,0,0,1,.42-.53c27.71-5.22,49.92,2.07,50.14,2.15a.52.52,0,0,1,.35.57l-1.48,8.47a.56.56,0,0,1-.16.29A21.62,21.62,0,0,1,217.35,79.21ZM206.75,71h.09a.55.55,0,0,1,.4.34,10.51,10.51,0,0,0,9.59,6.8c6.8.19,12.07-3.93,13-4.67l1.36-7.84A110,110,0,0,0,182.4,63.6l.54,11.05A30.2,30.2,0,0,0,195.3,77.2c6.42-.26,11-5.92,11-6A.51.51,0,0,1,206.75,71Z" fill="#231f20"></path><ellipse cx="215.91" cy="71" rx="3.58" ry="1.45" transform="translate(137.45 284.32) rotate(-88.01)" fill="#231f20"></ellipse><ellipse cx="197.36" cy="70.36" rx="3.58" ry="1.45" transform="translate(120.19 265.15) rotate(-88.01)" fill="#231f20"></ellipse><path d="M231.29,68.47l-.15,0a110.68,110.68,0,0,0-25.74-3.85,117.47,117.47,0,0,0-23.31,1.56.53.53,0,0,1-.61-.41.5.5,0,0,1,.4-.6,117.93,117.93,0,0,1,23.54-1.58,110.81,110.81,0,0,1,26,3.9.51.51,0,0,1,.34.64A.52.52,0,0,1,231.29,68.47Z" fill="#231f20"></path><path d="M155.11,217.86s-10.34-5.25-15.59-12.8-3.45-11.7-1.48-12.36,8.9-6.43,8.9-6.43S162,172.16,167.62,171s15.92,8.2,19.69,9,8-2.13,9.35,1-3.94,9.25-11.16,10.7a167.65,167.65,0,0,0-16.57,4.56S159,209.33,157.41,212C156.2,213.9,157,217.37,155.11,217.86Z" fill="#fff"></path><path d="M155.11,218.38a.46.46,0,0,1-.23-.06c-.43-.21-10.52-5.39-15.78-13-4-5.81-3.77-9.3-3.25-10.87a3.44,3.44,0,0,1,2-2.28c1.54-.51,6.83-4.75,8.73-6.34.6-.56,15.25-14.2,20.9-15.37,3.73-.77,9.33,2.81,13.82,5.68,2.46,1.58,4.79,3.07,6.09,3.35a11.53,11.53,0,0,0,4.33-.2c2.18-.38,4.44-.77,5.39,1.49a4.57,4.57,0,0,1-.51,3.89c-1.52,2.86-5.61,6.43-11,7.51a164.73,164.73,0,0,0-16.36,4.5c-1,1.36-9.89,13.07-11.41,15.51a7.21,7.21,0,0,0-.74,2.72c-.23,1.49-.46,3-1.86,3.41Zm13.53-47a4.56,4.56,0,0,0-.92.09c-5.37,1.11-20.27,15-20.42,15.13-.31.26-7.05,5.87-9.09,6.55a2.39,2.39,0,0,0-1.38,1.63c-.37,1.11-.81,4.31,3.11,10,4.73,6.79,13.76,11.76,15.21,12.53.55-.28.73-1.16.93-2.51a8.25,8.25,0,0,1,.89-3.11c1.63-2.61,11.15-15.18,11.55-15.71a.45.45,0,0,1,.25-.18,168.88,168.88,0,0,1,16.63-4.58c5.09-1,8.91-4.33,10.32-7a3.68,3.68,0,0,0,.47-3c-.6-1.43-1.94-1.27-4.26-.87a12.46,12.46,0,0,1-4.73.19c-1.48-.33-3.77-1.79-6.43-3.49C176.82,174.52,172,171.42,168.64,171.42Z" fill="#231f20"></path><path d="M208.8,171.56l-8.45-10.45a1.57,1.57,0,1,0-2.44,2l.15.18-36.61,29.61A6.48,6.48,0,0,0,169.6,203l36.61-29.61.15.18a1.57,1.57,0,1,0,2.44-2Z" fill="#fff"></path><path d="M165.54,204.92a6.28,6.28,0,0,1-.75,0,6.92,6.92,0,0,1-4.71-2.56,7,7,0,0,1,1-9.84l36.23-29.3a2.08,2.08,0,0,1,2-3.15,2,2,0,0,1,1.4.76l8.45,10.44h0a2.09,2.09,0,0,1-3,2.84l-36.22,29.29A7,7,0,0,1,165.54,204.92Zm33.59-43.87a1.05,1.05,0,0,0-.82,1.72l.15.18a.55.55,0,0,1,.11.38.47.47,0,0,1-.19.34l-36.61,29.61a6,6,0,1,0,7.51,9.28L205.88,173a.52.52,0,0,1,.73.08l.15.18a1.06,1.06,0,1,0,1.64-1.33h0L200,161.44a1.06,1.06,0,0,0-.71-.39Z" fill="#231f20"></path><path d="M162.39,200.46h0a4.61,4.61,0,0,1,.68-6.49l24.8-20.12,11.94,2.06-30.93,25.24A4.62,4.62,0,0,1,162.39,200.46Z" fill="#d1d3d4"></path><path d="M156.79,190.53s1.8-.49,7.88-.65,10.61-.08,10.93-1.89-2.81-3.86-2.81-3.86,6.64,3.12,9.1.5-1.14-4.84-1.14-4.84,5.87,3.37,7.95,1.23-2.38-4.3-2.38-4.3,6.24,2.49,6.73-.79-17.88-10-24-9.52-22.16,19.86-22.16,19.86" fill="#fff"></path><path d="M156.79,191.05a.51.51,0,0,1-.14-1c.08,0,1.94-.51,8-.68l1.7,0c4.38-.1,8.52-.2,8.75-1.42s-1.85-2.85-2.59-3.33a.52.52,0,0,1-.17-.69.51.51,0,0,1,.67-.21c1.75.82,6.7,2.53,8.51.6a2.13,2.13,0,0,0,.7-1.76,4,4,0,0,0-1.74-2.28.53.53,0,0,1-.18-.71.52.52,0,0,1,.7-.18c1.54.88,5.85,2.84,7.33,1.32a1.15,1.15,0,0,0,.4-1c-.19-1.06-2-2.14-2.63-2.46a.52.52,0,0,1-.25-.67.52.52,0,0,1,.67-.27c1,.42,4.07,1.34,5.4.58a1.24,1.24,0,0,0,.62-1c0-.22-.14-.55-.49-.93-3.12-3.34-17.68-8.44-22.91-8-5.79.47-21.64,19.48-21.8,19.67a.51.51,0,0,1-.73.06.5.5,0,0,1-.06-.72c.66-.8,16.29-19.54,22.5-20,5.54-.43,20.42,4.76,23.75,8.32a2.19,2.19,0,0,1,.76,1.79,2.26,2.26,0,0,1-1.13,1.7A5.38,5.38,0,0,1,189,178a3,3,0,0,1,.78,1.46,2.12,2.12,0,0,1-.67,1.92c-1.42,1.46-4.12.82-6.13,0a3,3,0,0,1,.31,1,3.15,3.15,0,0,1-1,2.61c-1.64,1.75-4.8,1.27-7.07.6a3.2,3.2,0,0,1,.91,2.5c-.37,2-4.1,2.14-9.74,2.27l-1.69,0a42.72,42.72,0,0,0-7.76.64Z" fill="#231f20"></path><path d="M172.79,184.65a.52.52,0,0,1-.21,0S168.33,182.8,166,183a.53.53,0,0,1-.56-.47.52.52,0,0,1,.48-.56c2.56-.18,6.87,1.63,7.05,1.71a.52.52,0,0,1,.27.68A.51.51,0,0,1,172.79,184.65Z" fill="#231f20"></path><path d="M180.75,180.3a.49.49,0,0,1-.21,0,48.27,48.27,0,0,0-9.07-3,.52.52,0,0,1-.42-.6.5.5,0,0,1,.59-.42,47.79,47.79,0,0,1,9.32,3.11.52.52,0,0,1,.26.68A.52.52,0,0,1,180.75,180.3Z" fill="#231f20"></path><path d="M186.32,177.23a.54.54,0,0,1-.26-.07c-.06,0-6.63-3.86-10.52-4.38a.52.52,0,0,1-.45-.58.52.52,0,0,1,.58-.45c4.1.56,10.64,4.36,10.92,4.52a.52.52,0,0,1-.27,1Z" fill="#231f20"></path><path d="M253.8,169.41s-4.67,43.33,11.17,56c9.84,7.88,27.1,3.28,29.29-4.59s-23.07-57.4-23.07-57.4Z" fill="#fff"></path><path d="M277.58,230a20.57,20.57,0,0,1-12.94-4.18c-6.68-5.35-10.62-16.5-11.71-33.13a153.53,153.53,0,0,1,.35-23.34.52.52,0,0,1,.35-.43l17.39-6a.52.52,0,0,1,.63.26c1,2,25.32,49.79,23.1,57.77-.92,3.31-4.42,6.25-9.37,7.84A25.65,25.65,0,0,1,277.58,230Zm-23.3-60.21c-.38,4-3.71,43.44,11,55.22,6,4.84,14.43,4.54,19.77,2.81,4.62-1.49,7.87-4.16,8.7-7.14,1.68-6-14.08-39.43-22.83-56.62Z" fill="#231f20"></path><path d="M234.88,142.4l-28,21,1.31,2.23L244,144.37s1.28-6.73-2.72-6.89S234.88,142.4,234.88,142.4Z" fill="#fff"></path><path d="M208.18,166.16h-.13a.55.55,0,0,1-.32-.24l-1.31-2.23a.52.52,0,0,1,.14-.67l27.91-20.95c.41-.82,2.78-5.26,6.78-5.1a3.05,3.05,0,0,1,2.37,1.16c1.63,2.06.87,6.17.84,6.35a.51.51,0,0,1-.25.34l-35.77,21.28A.48.48,0,0,1,208.18,166.16Zm-.63-2.6.81,1.38,35.12-20.89c.13-.84.48-3.84-.67-5.29a2,2,0,0,0-1.6-.77c-3.64-.12-5.84,4.57-5.86,4.62a.53.53,0,0,1-.16.2Zm27.33-21.16h0Z" fill="#231f20"></path><path d="M276.34,166.07a34,34,0,0,1-8.95,5.46,32.09,32.09,0,0,1-9.52,2.58c-1.52.16-8.1,1.34-6.33-1.93s-3.81-17.17-2.69-16.79c0,0-5.83-1.71-6.57-3.93s-2.59-9.71-4.07-10.17-3.33,1.11-3.33,1.11-.18-4.35,0-6.39,1.3-3.23,2.31-3c0,0-.92-2.77.56-4.16a3.32,3.32,0,0,1,3.05-.93s.74-3.42,3.42-3.51,3.52.37,3.52.37.65-3,3.51-3,4.63,1.75,6.48,2.86,5,8,5,8,.27-4.26.18-7-.37-4.81,2.13-4.63,3.24,2.22,3.42,6.94-.14,18.27.28,21.46,2.72,12.43,4,13.69S277,164.29,276.34,166.07Z" fill="#fff"></path><path d="M254.05,175c-1.4,0-2.57-.23-3.08-1a1.9,1.9,0,0,1,.11-2.05c1.06-1.95-.78-8.35-1.89-12.17a25.22,25.22,0,0,1-1-4.05c-1.54-.5-5.71-2-6.4-4.1-.15-.45-.35-1.14-.58-1.93-.62-2.09-2.24-7.63-3.15-7.91s-2.39.62-2.85,1a.51.51,0,0,1-.54.08.5.5,0,0,1-.3-.45c0-.18-.19-4.41,0-6.45a4.35,4.35,0,0,1,1.44-3.12,1.92,1.92,0,0,1,.73-.36c-.21-1-.39-2.9.86-4.07a3.94,3.94,0,0,1,3-1.13c.33-1,1.35-3.36,3.78-3.45a12,12,0,0,1,3.19.23,4.14,4.14,0,0,1,3.85-2.9h0a9.41,9.41,0,0,1,5.52,2.15c.4.27.8.54,1.2.78,1.36.82,3.22,4.2,4.32,6.37.06-1.47.13-3.46.08-5l0-.6c-.07-1.79-.12-3.2.71-4a2.46,2.46,0,0,1,2-.55c3,.22,3.72,2.89,3.9,7.43.07,1.92.06,5.28,0,8.83,0,5,0,10.72.22,12.58.46,3.54,2.77,12.33,3.83,13.4a5.41,5.41,0,0,0,1.7,1c1.12.49,2.65,1.15,2,2.73a.66.66,0,0,1-.14.2A34.28,34.28,0,0,1,267.6,172a33,33,0,0,1-9.67,2.63l-.57.07A27.82,27.82,0,0,1,254.05,175Zm-4.83-19.22a36.33,36.33,0,0,0,1,3.73c1.29,4.49,3.06,10.63,1.8,13-.17.31-.33.73-.17,1,.61.88,4.22.42,5.41.26l.59-.07a32,32,0,0,0,9.37-2.54,33.43,33.43,0,0,0,8.7-5.29c.13-.46-.19-.72-1.52-1.29a6.14,6.14,0,0,1-2-1.19c-1.45-1.47-3.75-11.21-4.11-14-.25-1.93-.24-7.42-.23-12.72,0-3.54,0-6.89-.05-8.79-.19-4.73-.91-6.29-2.95-6.44a1.51,1.51,0,0,0-1.2.27c-.5.48-.45,1.75-.4,3.22l0,.6c.09,2.77-.19,7-.19,7.08a.51.51,0,0,1-1,.18c-.86-1.86-3.39-6.88-4.8-7.73-.41-.24-.82-.52-1.24-.81a8.46,8.46,0,0,0-4.94-2h0c-2.41,0-3,2.53-3,2.64a.5.5,0,0,1-.29.36.53.53,0,0,1-.46,0h0a8,8,0,0,0-3.25-.31c-2.25.08-2.93,3.08-2.93,3.11a.55.55,0,0,1-.24.34.54.54,0,0,1-.41.05,2.8,2.8,0,0,0-2.56.8c-1.22,1.15-.42,3.6-.42,3.63a.52.52,0,0,1-.58.67.85.85,0,0,0-.66.2,3.37,3.37,0,0,0-1,2.39c-.13,1.4-.08,4,0,5.37a3.92,3.92,0,0,1,3-.64c1.21.38,2.24,3.2,3.83,8.61.23.78.42,1.45.57,1.9.54,1.61,4.68,3.14,6.22,3.59h0a.5.5,0,0,1,.33.64A.55.55,0,0,1,249.22,155.75Zm27.12,10.32h0Z" fill="#231f20"></path><path d="M265,126a4.66,4.66,0,0,1-2.1,3.91c0-1.39.09-3.07,0-4.41a15.12,15.12,0,0,1,.07-3.32A4.66,4.66,0,0,1,265,126Z" fill="#fff"></path><path d="M262.87,130.38a.51.51,0,0,1-.25-.06.55.55,0,0,1-.27-.47c0-1.43.09-3.07,0-4.37l0-.53a11.3,11.3,0,0,1,.1-2.93.51.51,0,0,1,.32-.36.51.51,0,0,1,.48.06,5.2,5.2,0,0,1-.13,8.58A.46.46,0,0,1,262.87,130.38Zm.51-7.21c0,.51,0,1.1,0,1.74l0,.54c0,1,0,2.14,0,3.26a4.18,4.18,0,0,0,0-5.54Z" fill="#231f20"></path><path d="M265,126a4.66,4.66,0,0,1-2.1,3.91,4.82,4.82,0,0,1-1.17.55c-1.07-2.11-2.78-5.17-4-5.88-.48-.29-1-.63-1.45-1A4.67,4.67,0,0,1,265,126Z" fill="#231f20"></path><path d="M261.7,130.91a.49.49,0,0,1-.44-.27c-1.58-3.11-3-5.18-3.79-5.67-.34-.21-.68-.44-1-.68L256,124a.51.51,0,0,1-.16-.67,5.17,5.17,0,1,1,7.29,7,4.89,4.89,0,0,1-1.29.61A.39.39,0,0,1,261.7,130.91ZM257,123.45l0,0c.33.23.66.45,1,.65,1.2.72,2.78,3.4,3.95,5.68a3.82,3.82,0,0,0,.66-.35,4.17,4.17,0,1,0-5.63-6Z" fill="#231f20"></path><rect x="220.94" y="191.74" width="25.18" height="4.72" fill="#fff"></rect><circle cx="198.21" cy="211.3" r="2.5" fill="#231f20"></circle><circle cx="198.21" cy="234" r="2.5" fill="#231f20"></circle><circle cx="198.21" cy="254.88" r="2.5" fill="#231f20"></circle><path d="M205.41,269.28a.49.49,0,0,1-.49-.49V196.46a.5.5,0,1,1,1,0v72.33A.49.49,0,0,1,205.41,269.28Z" fill="#231f20"></path><path d="M187,211h-11.3a1.33,1.33,0,0,0,0,2.65h.2v42a5.45,5.45,0,1,0,10.9,0v-42h.2a1.33,1.33,0,0,0,0-2.65Z" fill="#fff"></path><path d="M181.3,261.58a6,6,0,0,1-6-6V214.08a1.83,1.83,0,0,1,.32-3.64H187a1.83,1.83,0,0,1,.32,3.64v41.53A6,6,0,0,1,181.3,261.58Zm-5.65-50.11a.81.81,0,1,0,0,1.61h.2a.51.51,0,0,1,.51.52v42a4.94,4.94,0,1,0,9.88,0v-42a.51.51,0,0,1,.51-.52h.2a.81.81,0,1,0,0-1.61Z" fill="#231f20"></path><path d="M177.42,230.47v24.65A3.89,3.89,0,0,0,181.3,259h0a3.89,3.89,0,0,0,3.88-3.89V230.47Z" fill="#d1d3d4"></path><path d="M217.81,211h-11.3a1.33,1.33,0,0,0,0,2.65h.2v42a5.46,5.46,0,0,0,10.91,0v-42h.19a1.33,1.33,0,1,0,0-2.65Z" fill="#fff"></path><path d="M212.16,261.58a6,6,0,0,1-6-6V214.08a1.83,1.83,0,0,1,.32-3.64h11.3a1.83,1.83,0,0,1,.32,3.64v41.53A6,6,0,0,1,212.16,261.58Zm-5.65-50.11a.81.81,0,0,0,0,1.61h.2a.52.52,0,0,1,.52.52v42a4.94,4.94,0,1,0,9.87,0v-42a.52.52,0,0,1,.52-.52h.19a.81.81,0,1,0,0-1.61Z" fill="#231f20"></path><path d="M208.28,223.87v31.25a3.89,3.89,0,0,0,3.88,3.89h0a3.89,3.89,0,0,0,3.89-3.89V223.87Z" fill="#d1d3d4"></path><path d="M248.68,211h-11.3a1.33,1.33,0,0,0,0,2.65h.19v42a5.46,5.46,0,0,0,10.91,0v-42h.2a1.33,1.33,0,0,0,0-2.65Z" fill="#fff"></path><path d="M243,261.58a6,6,0,0,1-6-6V214.08a1.83,1.83,0,0,1,.32-3.64h11.3a1.83,1.83,0,0,1,.32,3.64v41.53A6,6,0,0,1,243,261.58Zm-5.65-50.11a.81.81,0,1,0,0,1.61h.19a.52.52,0,0,1,.52.52v42a4.94,4.94,0,1,0,9.87,0v-42a.52.52,0,0,1,.52-.52h.2a.81.81,0,0,0,0-1.61Z" fill="#231f20"></path><path d="M239.14,245.83v9.29A3.89,3.89,0,0,0,243,259h0a3.89,3.89,0,0,0,3.88-3.89v-9.29Z" fill="#d1d3d4"></path><rect x="141.01" y="233.34" width="123.6" height="5.34" fill="#fff"></rect><path d="M264.61,239.19H141a.51.51,0,0,1-.52-.51v-5.34a.52.52,0,0,1,.52-.52h123.6a.52.52,0,0,1,.52.52v5.34A.51.51,0,0,1,264.61,239.19Zm-123.09-1H264.1v-4.31H141.52Z" fill="#231f20"></path><rect x="257.63" y="238.68" width="3.74" height="32.39" fill="#fff"></rect><path d="M261.37,271.59h-3.74a.52.52,0,0,1-.52-.52V238.68a.52.52,0,0,1,.52-.52h3.74a.51.51,0,0,1,.51.52v32.39A.51.51,0,0,1,261.37,271.59Zm-3.23-1h2.71V239.19h-2.71Z" fill="#231f20"></path><rect x="144.25" y="238.68" width="3.74" height="32.39" fill="#fff"></rect><path d="M148,271.59h-3.74a.51.51,0,0,1-.51-.52V238.68a.51.51,0,0,1,.51-.52H148a.52.52,0,0,1,.52.52v32.39A.52.52,0,0,1,148,271.59Zm-3.22-1h2.71V239.19h-2.71Z" fill="#231f20"></path><rect x="141.01" y="264.85" width="123.6" height="11.56" fill="#fff"></rect><path d="M264.61,276.93H141a.52.52,0,0,1-.52-.52V264.85a.51.51,0,0,1,.52-.51h123.6a.51.51,0,0,1,.52.51v11.56A.52.52,0,0,1,264.61,276.93Zm-123.09-1H264.1V265.37H141.52Z" fill="#231f20"></path></g></svg>