<svg xmlns="http://www.w3.org/2000/svg" viewBox="0 0 400 300" width="406" height="306" class="illustration styles_illustrationTablet__1DWOa"><g id="_353_nurse_flatline" data-name="#353_nurse_flatline"><path d="M176.19,194.15s-7.77,47.42-24.51,47-47.57-64.4-52.93-73.84c0,0-20-18.94-21.85-20.62-2.68-2.44,3.39-15.57,7.52-13s17.82,13.59,17.82,13.59-3.86-13.54-1.06-13.84,15.1,20.53,14.55,24.32-.69,9.51-.69,9.51L145,201l2.78-19" fill="#fff"></path><path d="M151.89,241.69h-.22c-14.74-.35-39.31-47.32-49.81-67.39-1.55-3-2.78-5.32-3.53-6.63-1.17-1.12-20-19-21.78-20.57-2.08-1.89.13-8.16,2.64-11.46,1.89-2.49,3.9-3.35,5.5-2.35,3.42,2.15,13.16,9.87,16.64,12.64-.85-3.26-2.49-10.42-1.19-12.35a1.33,1.33,0,0,1,1-.61c.62-.06,1.37.39,2.41,1.48,4.17,4.35,13.23,19.82,12.71,23.43-.49,3.32-.65,8.19-.68,9.24l29,32.73L147.22,182a.51.51,0,0,1,.58-.43.52.52,0,0,1,.44.58l-2.78,19a.52.52,0,0,1-.36.42.5.5,0,0,1-.53-.15l-29.92-33.72a.52.52,0,0,1-.13-.36s.14-5.78.69-9.56c.42-2.81-7.83-17.78-12.42-22.56-1.15-1.2-1.55-1.18-1.56-1.17s-.14,0-.23.16c-1,1.49.53,8.78,1.74,13a.51.51,0,0,1-.82.54c-.14-.11-13.72-11-17.78-13.55-1.55-1-3.41,1.14-4.13,2.1-2.59,3.41-4.09,8.87-2.77,10.07C79.06,148,98.9,166.78,99.1,167a.47.47,0,0,1,.09.12c.75,1.31,2,3.71,3.59,6.74,9.51,18.18,34.78,66.5,48.91,66.83,16.1.35,23.92-46.13,24-46.6a.51.51,0,0,1,.6-.42.5.5,0,0,1,.42.59C176.38,196.18,168.73,241.69,151.89,241.69Z" fill="#231f20"></path><path d="M222.47,41.26l.13.08c.77.54,3.48,3.72,4.16,3.74,7.05.21,13.62,4.53,17.47,10.44,4.18,6.44,5.71,14,3.27,21.19s-5,17-3.34,24.48c1,4.38,2.71,8.64,2.89,13.13.37,9.39-6.39,18-14.75,22.27s-18.07,5.07-27.48,5.13c-10.87.05-26.61-2.62-32.18-13.28a19.82,19.82,0,0,1-.68-16.63c1-2.38,2.48-4.57,3.27-7,1.53-4.73.36-9.89-1.27-14.59s-3.73-9.32-4.12-14.27c-.66-8.6,5-18.62,10.27-25.15,5.81-7.24,14.14-13.06,23.67-13.45,3.83-.15,8.68-.23,12.37.84A22.39,22.39,0,0,1,222.47,41.26Z" fill="#fff"></path><path d="M204.53,142.23c-6.32,0-25.82-1-32.34-13.55a20.27,20.27,0,0,1-.71-17.07c.42-1,.93-2,1.42-2.91a26.67,26.67,0,0,0,1.84-4.08c1.57-4.87.15-10.18-1.26-14.26-.35-1-.72-2-1.09-3-1.35-3.66-2.75-7.44-3.06-11.4-.83-10.66,7.73-22.23,10.37-25.52,3.93-4.89,12.27-13.16,24.06-13.63,4.16-.17,8.9-.2,12.53.86a22.9,22.9,0,0,1,6.47,3.16h0l-.29.43.34-.4.08.06a15.1,15.1,0,0,1,1.56,1.48,14.83,14.83,0,0,0,2.38,2.17c6.83.2,13.68,4.29,17.83,10.67,4.53,7,5.71,14.65,3.33,21.64-3.52,10.26-4.63,18.41-3.33,24.2.32,1.4.72,2.83,1.11,4.21a39,39,0,0,1,1.8,9c.4,10.18-7.26,18.76-15,22.76-8.72,4.48-18.91,5.13-27.71,5.18Zm3.09-104.48c-1.3,0-2.58,0-3.82.09-11.38.46-19.48,8.5-23.29,13.25-2.58,3.21-10.95,14.51-10.15,24.79.29,3.82,1.67,7.53,3,11.12.37,1,.74,2,1.09,3,1.47,4.23,2.94,9.74,1.27,14.91a28,28,0,0,1-1.91,4.24c-.48.92-1,1.87-1.38,2.83a19.26,19.26,0,0,0,.67,16.19c6.36,12.18,25.89,13,31.72,13,8.69,0,18.72-.69,27.24-5.07,7.48-3.84,14.86-12.07,14.48-21.79a38.76,38.76,0,0,0-1.76-8.77c-.4-1.39-.8-2.83-1.13-4.27-1.34-6-.21-14.31,3.36-24.76,2.28-6.68,1.14-14-3.22-20.74-4-6.1-10.5-10-17-10.2-.58,0-1.37-.77-3-2.47a15.34,15.34,0,0,0-1.41-1.36l.21-.49-.29.43.25-.45-.29.42a21.93,21.93,0,0,0-6.18-3A31.13,31.13,0,0,0,207.62,37.75Z" fill="#231f20"></path><path d="M190.92,84.47C189.46,76,175.3,74,176.11,84.06A14.85,14.85,0,0,0,180,93.44c2.45,2.44,6.37,3.57,9.51,2.12" fill="#fff"></path><path d="M186.46,96.72a9.86,9.86,0,0,1-6.84-2.91c-2.91-2.9-3.79-6.88-4-9.71-.39-4.81,2.51-6.91,5.36-7.27,4.24-.53,9.59,2.44,10.47,7.55a.52.52,0,0,1-.42.6.5.5,0,0,1-.59-.42c-.78-4.55-5.55-7.18-9.33-6.7-3.08.38-4.74,2.69-4.46,6.16.21,2.65,1,6.38,3.72,9.06,2.48,2.47,6.15,3.29,8.93,2a.52.52,0,0,1,.43.94A7.84,7.84,0,0,1,186.46,96.72Z" fill="#231f20"></path><path d="M226.16,84.08c1.27-8.53,15.39-10.79,14.8-.74a14.79,14.79,0,0,1-3.67,9.47c-2.39,2.49-6.29,3.71-9.46,2.33" fill="#fff"></path><path d="M230.7,96.23a7.66,7.66,0,0,1-3.07-.62.52.52,0,1,1,.41-1c2.81,1.23,6.46.31,8.88-2.21,2.63-2.73,3.37-6.48,3.52-9.14.21-3.47-1.51-5.74-4.6-6.06-3.79-.39-8.49,2.35-9.17,6.91a.52.52,0,0,1-.59.43.51.51,0,0,1-.43-.58c.76-5.14,6.06-8.22,10.3-7.78,2.86.29,5.81,2.32,5.52,7.14-.16,2.84-1,6.84-3.8,9.8A9.86,9.86,0,0,1,230.7,96.23Z" fill="#231f20"></path><path d="M172,223.55c-2,5.27-8.52,34.22-11.52,46.91h99.18c-2.14-17.28-10.86-39.16-11.61-45.11-.88-7-1.4-20.67-1.4-20.67l39.58-6s-17.09-53.09-22.53-59.09-32.87-14.37-32.87-14.37c-7-2.29-41.73.07-41.73.07s-27.85,7-32.58,15.1-15.92,48.29-15.92,48.29l33.53,12.91S174.59,216.63,172,223.55Z" fill="#00BFA6"></path><path d="M174.33,199.12a.52.52,0,0,1-.51-.43c0-.28-4.49-27.48-5.46-44.89a.52.52,0,0,1,1-.06c1,17.36,5.4,44.51,5.45,44.78a.52.52,0,0,1-.43.59Z" fill="#231f20"></path><path d="M210.76,138.31c-.65,41.77-1.62,83-3,125.52" fill="#fff"></path><path d="M207.78,264.34h0a.51.51,0,0,1-.5-.53c1.35-42.62,2.33-83.67,3-125.51a.52.52,0,1,1,1,0c-.64,41.84-1.62,82.9-3,125.52A.52.52,0,0,1,207.78,264.34Z" fill="#231f20"></path><path d="M221.49,126.18s-7.84,12.19-13.29,12.07S196.68,127,196.68,127l.35-6,.8-13.86.76-12.94L220.8,94l.86,10.57.26,3.43Z" fill="#fff"></path><path d="M208.27,138.77h-.08c-5.69-.13-11.71-11.08-12-11.54a.55.55,0,0,1-.07-.28l1.91-32.76a.52.52,0,0,1,.51-.49l22.21-.25a.5.5,0,0,1,.52.48l1.12,14L222,126.19a.5.5,0,0,1-.08.27C221.6,127,213.94,138.77,208.27,138.77ZM197.2,126.86c.69,1.22,6.22,10.77,11,10.87h.07c4.82,0,11.87-10.47,12.69-11.71L221.4,108l-1.08-13.47-21.25.24Zm24.29-.68h0Z" fill="#231f20"></path><path d="M221.92,108a20.88,20.88,0,0,1-7.22,7.42C210,118.48,202.84,122,197,121l.8-13.86a47.4,47.4,0,0,0,12.81,0c3.74-.42,7.6-.88,11-2.58Z" fill="#231f20"></path><path d="M199.08,121.68a13.7,13.7,0,0,1-2.13-.17.49.49,0,0,1-.42-.52l.8-13.85a.54.54,0,0,1,.18-.36.5.5,0,0,1,.39-.11,46.68,46.68,0,0,0,12.68,0c3.48-.39,7.41-.83,10.86-2.53a.47.47,0,0,1,.46,0,.48.48,0,0,1,.25.4l.26,3.43a.52.52,0,0,1,0,.27,21.19,21.19,0,0,1-7.39,7.6C211.44,118.11,205,121.68,199.08,121.68Zm-1.53-1.09c6,.74,13.12-3.17,16.88-5.62a20.27,20.27,0,0,0,7-7.1l-.2-2.57c-3.42,1.53-7.18,1.94-10.52,2.32a48.33,48.33,0,0,1-12.4.11Z" fill="#231f20"></path><path d="M210.61,110.29l-2.27,0A19.53,19.53,0,0,1,188.6,91c-.07-6.16-.2-18.49-.2-18.49s10.91-2.66,18-5.33c11.87-4.49,15.06-10.9,15.06-10.9a48.69,48.69,0,0,0,2.79,12.47c1.28,2.92,5.3,8.15,5.3,8.15s.35,9.62.39,13.65A19.52,19.52,0,0,1,210.61,110.29Z" fill="#fff"></path><path d="M208.12,110.83a20.07,20.07,0,0,1-20-19.82l-.2-18.5a.51.51,0,0,1,.39-.5c.11,0,11-2.68,17.92-5.31C217.7,62.35,221,56.11,221,56.05a.54.54,0,0,1,.57-.28.52.52,0,0,1,.41.47,47.86,47.86,0,0,0,2.75,12.31c1.23,2.83,5.19,8,5.23,8a.55.55,0,0,1,.11.3c0,.09.35,9.68.39,13.66a20,20,0,0,1-19.82,20.26h0l-2.28,0Zm2.5-.54Zm-21.7-37.38.2,18.09a19,19,0,0,0,19.21,18.79l2.28,0a19,19,0,0,0,18.8-19.22c0-3.68-.34-12.18-.39-13.47A54.33,54.33,0,0,1,223.76,69a48.45,48.45,0,0,1-2.69-11.15c-1.58,2.14-5.67,6.51-14.51,9.85C200.3,70,191,72.4,188.92,72.91Z" fill="#231f20"></path><path d="M209,96.35a22.21,22.21,0,0,1-2.51-.14,1.21,1.21,0,0,1-.93-.61c-1.47-2.39,2.23-12.66,3-14.7a.53.53,0,0,1,.67-.3.52.52,0,0,1,.3.66c-1.68,4.53-4,12.29-3.07,13.8a.21.21,0,0,0,.17.13,26.19,26.19,0,0,0,5.54-.06.51.51,0,0,1,.14,1A26.87,26.87,0,0,1,209,96.35Z" fill="#231f20"></path><ellipse cx="218.18" cy="78.6" rx="1.35" ry="3.31" transform="translate(-0.85 2.41) rotate(-0.63)" fill="#231f20"></ellipse><ellipse cx="200.39" cy="78.18" rx="1.35" ry="3.31" transform="translate(-0.85 2.22) rotate(-0.63)" fill="#231f20"></ellipse><path d="M209,100.93c-4.47,0-9-2.13-13.42-6.35a.52.52,0,0,1,0-.73.53.53,0,0,1,.73,0c4.63,4.4,9.29,6.42,13.85,6,6.63-.58,10.82-6.17,10.86-6.23a.52.52,0,1,1,.83.61c-.18.25-4.5,6-11.59,6.65C209.8,100.91,209.39,100.93,209,100.93Z" fill="#231f20"></path><path d="M222.09,122.53s9.22.67,9.73,3.06-2.16,19.94-5.46,24-17.44-11.28-17.44-11.28Z" fill="#fff"></path><path d="M224.81,150.74c-5,0-15.81-11.63-16.27-12.12a.53.53,0,0,1,0-.68L221.7,122.2a.5.5,0,0,1,.43-.18c1.61.11,9.64.83,10.2,3.46s-2.18,20.26-5.58,24.4a2.42,2.42,0,0,1-1.85.86Zm-15.2-12.49c3.28,3.5,11.53,11.46,15.19,11.46h.07a1.41,1.41,0,0,0,1.09-.49c3.16-3.85,5.87-21.12,5.36-23.52-.29-1.36-5.35-2.34-9-2.63Z" fill="#231f20"></path><path d="M195.78,121.91s-9.24.23-9.86,2.59,1.22,20,4.33,24.19,17.95-10.44,17.95-10.44Z" fill="#fff"></path><path d="M191.9,150h-.26a2.4,2.4,0,0,1-1.81-.95c-3.2-4.29-5.07-22.11-4.41-24.63s8.74-2.94,10.35-3a.49.49,0,0,1,.42.21l12.42,16.34a.53.53,0,0,1-.05.68C208.08,139.09,197,150,191.9,150Zm3.63-27.53c-3.66.12-8.76.86-9.11,2.2-.63,2.38,1.27,19.76,4.24,23.76a1.39,1.39,0,0,0,1.06.53c3.59.27,12.32-7.36,15.79-10.72Z" fill="#231f20"></path><rect x="180.22" y="188.37" width="60.77" height="74.45" transform="translate(-52.35 64.04) rotate(-15.4)" fill="#fff"></rect><path d="M191.2,270.07a.53.53,0,0,1-.5-.38l-19.78-71.77a.58.58,0,0,1,.05-.39.55.55,0,0,1,.31-.25l58.59-16.14a.52.52,0,0,1,.64.36l19.78,71.78a.49.49,0,0,1,0,.39.55.55,0,0,1-.31.25l-58.59,16.13A.34.34,0,0,1,191.2,270.07Zm-19.14-71.93,19.5,70.78,57.6-15.86-19.51-70.79Z" fill="#231f20"></path><path d="M193.8,198.21l17.92-4.94a3.65,3.65,0,0,0,2.44-4.78l-1.44-4.26-25.35,7,1.44,4.27A4.2,4.2,0,0,0,193.8,198.21Z" fill="#fff"></path><path d="M192.78,198.86a4.78,4.78,0,0,1-4.46-3.22l-1.44-4.27a.51.51,0,0,1,0-.4.52.52,0,0,1,.32-.26l25.35-7a.5.5,0,0,1,.62.33l1.45,4.27a4.3,4.3,0,0,1-.25,3.41,4.1,4.1,0,0,1-2.55,2l-17.92,4.94h0A4.48,4.48,0,0,1,192.78,198.86Zm1-.65h0ZM188,191.56l1.27,3.75a3.68,3.68,0,0,0,4.36,2.4l17.92-4.93a3.07,3.07,0,0,0,1.91-1.52,3.26,3.26,0,0,0,.18-2.6l-1.29-3.81Z" fill="#231f20"></path><ellipse cx="208.39" cy="189.8" rx="1.17" ry="1.25" transform="translate(-71.69 221.51) rotate(-48.79)" fill="#d1d3d4"></ellipse><ellipse cx="194.41" cy="193.66" rx="1.17" ry="1.25" transform="translate(-79.36 212.31) rotate(-48.79)" fill="#d1d3d4"></ellipse><path d="M282.42,199.05s3.36,23,4.11,27.33c1.63,9.56-59.09,22.17-82.91,26.05,0,0-16.79.21-20.15-5s-6.08-11.12-3.28-11.37,15.56.88,15.56.88-8.7-6.77-7.59-9.06,14.18,4.68,17.49,5.07,4.28,1.37,8.34.83,46.67-15.33,46.67-15.33L254,203.56" fill="#fff"></path><path d="M203.23,252.94c-2.84,0-17-.27-20.19-5.18-1.32-2-5.51-8.78-4.31-11.25a1.63,1.63,0,0,1,1.41-.91c2.22-.21,10.38.43,14,.73-2.76-2.29-7.41-6.55-6.41-8.63.84-1.75,4.92-.24,11.53,2.47a38.7,38.7,0,0,0,6.5,2.32,25.54,25.54,0,0,1,2.8.52,12.43,12.43,0,0,0,5.4.31c3.72-.49,41.12-13.42,46-15.12l-6.42-14.43a.52.52,0,0,1,.27-.68.51.51,0,0,1,.68.26l6.64,14.94a.49.49,0,0,1,0,.41.53.53,0,0,1-.3.29c-1.75.6-42.71,14.82-46.78,15.36a13.65,13.65,0,0,1-5.77-.33,21.65,21.65,0,0,0-2.69-.51,37.52,37.52,0,0,1-6.76-2.38c-3.16-1.3-9.73-4-10.21-3-.57,1.18,3.42,5.3,7.44,8.44a.52.52,0,0,1,.17.59.54.54,0,0,1-.53.33c-.13,0-12.75-1.13-15.47-.89a.62.62,0,0,0-.57.34c-.61,1.26,1.13,5.47,4.24,10.24s19.56,4.72,19.71,4.72c23.94-3.91,75.57-14.83,81.87-23.65a2.38,2.38,0,0,0,.54-1.8c-.74-4.33-4.07-27.12-4.11-27.35a.52.52,0,0,1,1-.15c0,.23,3.37,23,4.11,27.33a3.41,3.41,0,0,1-.72,2.57c-2.95,4.13-14.94,8.92-35.63,14.23-17.13,4.41-36,8.05-47,9.84Z" fill="#231f20"></path><path d="M246.64,205.2h-.13a.53.53,0,0,1-.38-.63c3.9-15.76,4.32-48.52,4.33-48.85a.51.51,0,0,1,.51-.51h0a.52.52,0,0,1,.51.52c0,.33-.43,33.21-4.35,49.09A.52.52,0,0,1,246.64,205.2Z" fill="#231f20"></path><path d="M102.05,147.49s-6.94,4.37-8.89,8.68" fill="#fff"></path><path d="M93.16,156.69a.41.41,0,0,1-.21-.05.52.52,0,0,1-.26-.68c2-4.4,8.79-8.72,9.08-8.9a.51.51,0,0,1,.71.16.52.52,0,0,1-.16.71c-.07,0-6.82,4.34-8.69,8.46A.5.5,0,0,1,93.16,156.69Z" fill="#231f20"></path><rect x="175.79" y="161.38" width="21.55" height="3.25" transform="translate(369.22 330.39) rotate(-178.64)" fill="#fff"></rect><path d="M197.3,165.41h0l-21.55-.51a.52.52,0,0,1-.36-.16.47.47,0,0,1-.14-.37l.07-3.25a.49.49,0,0,1,.53-.51l21.55.51a.52.52,0,0,1,.36.16.48.48,0,0,1,.14.37l-.07,3.25A.53.53,0,0,1,197.3,165.41Zm-21-1.53,20.52.48,0-2.22-20.52-.48Z" fill="#231f20"></path><path d="M239,52.25S206.8,46.06,181.79,50l-3.2-14.75s11.48-11.55,33.2-9.54a54.39,54.39,0,0,1,31.63,13.66Z" fill="#fff"></path><path d="M239,52.77h-.1c-.32-.06-32.37-6.13-57-2.27a.51.51,0,0,1-.58-.4l-3.21-14.75a.55.55,0,0,1,.14-.47,32.49,32.49,0,0,1,8.6-5.63,48,48,0,0,1,25-4.06A55.43,55.43,0,0,1,243.79,39a.52.52,0,0,1,.12.53l-4.46,12.9A.51.51,0,0,1,239,52.77Zm-38.54-4.59a235.07,235.07,0,0,1,38.19,3.48l4.21-12.16a54.85,54.85,0,0,0-31.09-13.3c-19.7-1.82-31,7.73-32.59,9.21l3,14A124.29,124.29,0,0,1,200.43,48.18Z" fill="#231f20"></path><rect x="202.83" y="35.43" width="12.58" height="3.14" transform="translate(167.17 245.19) rotate(-88.64)" fill="#d1d3d4"></rect><rect x="207.54" y="30.71" width="3.14" height="12.58" transform="translate(167.17 245.19) rotate(-88.64)" fill="#d1d3d4"></rect></g></svg>